<?xml version="1.0" encoding="UTF-8" standalone="no"?>
<svg
   width="24"
   height="24"
   viewBox="0 -64 24 24"
   version="1.1"
   id="svg1875"
   sodipodi:docname="delivery.svg"
   inkscape:version="1.1.2 (0a00cf5339, 2022-02-04)"
   xmlns:inkscape="http://www.inkscape.org/namespaces/inkscape"
   xmlns:sodipodi="http://sodipodi.sourceforge.net/DTD/sodipodi-0.dtd"
   xmlns="http://www.w3.org/2000/svg"
   xmlns:svg="http://www.w3.org/2000/svg">
  <defs
     id="defs1879" />
  <sodipodi:namedview
     id="namedview1877"
     pagecolor="#ffffff"
     bordercolor="#666666"
     borderopacity="1.0"
     inkscape:pageshadow="2"
     inkscape:pageopacity="0.0"
     inkscape:pagecheckerboard="0"
     showgrid="false"
     inkscape:zoom="11.875"
     inkscape:cx="18.821053"
     inkscape:cy="19.284211"
     inkscape:window-width="1366"
     inkscape:window-height="749"
     inkscape:window-x="0"
     inkscape:window-y="0"
     inkscape:window-maximized="1"
     inkscape:current-layer="svg1875"
     fit-margin-top="0"
     fit-margin-left="0"
     fit-margin-right="0"
     fit-margin-bottom="0" />
  <path
     d="m 19.050109,-54.974213 c -0.547835,-0.0035 -1.069943,0.08407 -1.558953,0.252185 l -1.209664,-2.006497 h 3.029676 c 0.489009,0 0.882422,-0.39107 0.882422,-0.87716 v -1.169546 c 0,-0.486096 -0.393413,-0.877159 -0.882422,-0.877159 h -1.665589 c -0.25002,0 -0.489009,0.105991 -0.654463,0.288729 l -1.378797,1.524064 -0.838306,-1.388836 c -0.161782,-0.263142 -0.448566,-0.423957 -0.757419,-0.423957 h -2.941423 c -0.323562,0 -0.588286,0.263149 -0.588286,0.584772 v 0.584773 c 0,0.321625 0.264724,0.584774 0.588286,0.584774 h 2.441382 l 0.705945,1.169546 H 8.5712774 C 7.9204864,-57.57279 6.9204059,-58.190457 4.8981695,-58.190457 H 2.8575579 c -0.496368,0 -0.9118418,0.402027 -0.9008111,0.895432 0.00735,0.475124 0.4007638,0.858887 0.8824289,0.858887 h 2.0589938 c 0.9008111,0 1.4229197,0.39837 1.7575064,0.906396 l -0.4154809,0.74924 c -0.4779788,-0.142544 -0.9890497,-0.208326 -1.5185099,-0.190054 -2.4744745,0.08772 -4.47097037,2.101524 -4.52979616,4.56488 -0.0587977,2.635136 2.07003156,4.787825 4.70628056,4.787825 2.1913624,0 4.0334352,-1.49117 4.5592161,-3.508631 h 3.0958514 c 0.50372,0 0.904484,-0.41665 0.882429,-0.917362 -0.07721,-1.721424 0.643433,-3.424576 2.066353,-4.568536 l 0.459596,0.760204 c -1.01479,0.866194 -1.65823,2.152689 -1.647198,3.589043 0.01836,2.54376 2.103116,4.623353 4.662157,4.645282 2.632584,0.02557 4.772472,-2.101522 4.750411,-4.718379 -0.02572,-2.54376 -2.117827,-4.619703 -4.676876,-4.637983 z M 4.8981695,-47.37217 c -1.6214585,0 -2.9414227,-1.312082 -2.9414227,-2.923858 0,-1.611784 1.3199642,-2.923866 2.9414227,-2.923866 0.15443,0 0.3088529,0.01093 0.4596037,0.03657 l -1.5258684,2.755735 c -0.3235559,0.584774 0.1029486,1.301125 0.7721218,1.301125 h 2.9892247 c -0.4559174,1.03066 -1.4927693,1.754312 -2.6950818,1.754312 z m 17.0566055,-2.76305 c -0.08089,1.483863 -1.286879,2.682646 -2.775976,2.7594 -1.694994,0.09137 -3.103204,-1.253608 -3.103204,-2.920208 0,-0.782133 0.308853,-1.49117 0.812565,-2.013811 l 1.816332,3.011577 c 0.165461,0.277765 0.52946,0.365483 0.808894,0.201017 l 0.503719,-0.299694 c 0.27944,-0.164472 0.367679,-0.526298 0.202225,-0.804063 l -1.786919,-2.956759 c 0.191194,-0.0402 0.386067,-0.05844 0.584614,-0.05844 1.676611,-0.0035 3.025989,1.396143 2.93775,3.081016 z"
     id="path1873"
     style="fill:#ffffff;stroke-width:0.036658" />
</svg>
