<?xml version="1.0" encoding="UTF-8" standalone="no"?>
<svg
   width="24"
   height="24"
   version="1.1"
   id="svg1940"
   sodipodi:docname="facebook.svg"
   inkscape:version="1.1.2 (0a00cf5339, 2022-02-04)"
   xmlns:inkscape="http://www.inkscape.org/namespaces/inkscape"
   xmlns:sodipodi="http://sodipodi.sourceforge.net/DTD/sodipodi-0.dtd"
   xmlns="http://www.w3.org/2000/svg"
   xmlns:svg="http://www.w3.org/2000/svg">
  <defs
     id="defs1944" />
  <sodipodi:namedview
     id="namedview1942"
     pagecolor="#ffffff"
     bordercolor="#666666"
     borderopacity="1.0"
     inkscape:pageshadow="2"
     inkscape:pageopacity="0.0"
     inkscape:pagecheckerboard="0"
     showgrid="false"
     inkscape:zoom="19.791667"
     inkscape:cx="12.858947"
     inkscape:cy="11.974737"
     inkscape:window-width="1366"
     inkscape:window-height="749"
     inkscape:window-x="0"
     inkscape:window-y="0"
     inkscape:window-maximized="1"
     inkscape:current-layer="svg1940" />
  <path
     d="M20 3H4a1 1 0 0 0-1 1v16a1 1 0 0 0 1 1h8.615v-6.96h-2.338v-2.725h2.338v-2c0-2.325 1.42-3.592 3.5-3.592.699-.002 1.399.034 2.095.107v2.42h-1.435c-1.128 0-1.348.538-1.348 1.325v1.735h2.697l-.35 2.725h-2.348V21H20a1 1 0 0 0 1-1V4a1 1 0 0 0-1-1z"
     id="path1938"
     style="fill:#ffffff" />
</svg>
