<svg width="216" height="54" viewBox="0 0 216 54" fill="none" xmlns="http://www.w3.org/2000/svg">
<path d="M2.35284 31.8607C5.16344 27.284 7.5057 22.7712 12.5336 17.8925C21.0853 8.7829 30.0494 5.60741 34.9871 4.41907C32.928 9.2868 30.5748 11.3499 29.4282 24.9176C30.7829 39.9852 31.9121 37.0414 33.1201 40.3828C27.5111 39.5671 21.7088 39.0782 16.5553 37.4924C6.78831 35.6097 6.54666 33.7373 2.35284 31.8607Z" fill="white"/>
<path d="M0 33.9872L1.41491 32.6107C5.12432 34.3772 7.46144 36.1139 12.8234 37.9161C18.1461 39.5729 20.8657 40.0743 23.582 40.5742C26.8358 41.311 28.595 41.1891 30.5207 41.1629C31.8418 41.0479 31.9797 41.1526 34.1543 40.5718C33.0467 32.7123 28.3486 23.0198 35.9904 7.5337C37.0992 5.28683 39.9547 3.25103 42.8491 0.568258L46.1046 0C29.9361 11.036 32.7734 27.9216 34.6489 40.3653C46.5395 37.4422 60.2652 37.9151 68.9898 40.0802C43.9589 37.603 22.3258 44.1427 6.64358 53.4447C13.8532 48.1159 21.802 44.1927 29.8828 41.7883C28.2905 41.464 27.4387 42.2779 18.1894 40.6745C14.7565 39.7841 13.2607 39.8411 7.17872 37.5656C3.06868 35.6835 1.51199 34.8264 0 33.9872Z" fill="white"/>
<path d="M62.2242 23.0156V7.25H66.8961V23.0156C66.8961 24.5365 66.5628 25.8438 65.8961 26.9375C65.2295 28.0208 64.318 28.8542 63.1617 29.4375C62.0159 30.0208 60.7242 30.3125 59.2867 30.3125C57.7972 30.3125 56.4795 30.0625 55.3336 29.5625C54.1878 29.0625 53.2867 28.2969 52.6305 27.2656C51.9742 26.224 51.6461 24.9062 51.6461 23.3125H56.3492C56.3492 24.1458 56.4638 24.8073 56.693 25.2969C56.9326 25.7865 57.2711 26.1354 57.7086 26.3438C58.1461 26.5521 58.6722 26.6562 59.2867 26.6562C59.8805 26.6562 60.3961 26.5156 60.8336 26.2344C61.2711 25.9531 61.6097 25.5417 61.8492 25C62.0992 24.4583 62.2242 23.7969 62.2242 23.0156ZM79.7399 26.1875V18.6562C79.7399 18.1146 79.6513 17.651 79.4742 17.2656C79.2972 16.8698 79.0211 16.5625 78.6461 16.3438C78.2815 16.125 77.8076 16.0156 77.2242 16.0156C76.7242 16.0156 76.292 16.1042 75.9274 16.2812C75.5628 16.4479 75.2815 16.6927 75.0836 17.0156C74.8857 17.3281 74.7867 17.6979 74.7867 18.125H70.2867C70.2867 17.4062 70.4534 16.724 70.7867 16.0781C71.1201 15.4323 71.6045 14.8646 72.2399 14.375C72.8753 13.875 73.6305 13.4844 74.5055 13.2031C75.3909 12.9219 76.3805 12.7812 77.4742 12.7812C78.7867 12.7812 79.9534 13 80.9742 13.4375C81.9951 13.875 82.7972 14.5312 83.3805 15.4062C83.9742 16.2812 84.2711 17.375 84.2711 18.6875V25.9219C84.2711 26.849 84.3284 27.6094 84.443 28.2031C84.5576 28.7865 84.7242 29.2969 84.943 29.7344V30H80.3961C80.1774 29.5417 80.0107 28.9688 79.8961 28.2812C79.792 27.5833 79.7399 26.8854 79.7399 26.1875ZM80.3336 19.7031L80.3649 22.25H77.8492C77.2555 22.25 76.7399 22.3177 76.3024 22.4531C75.8649 22.5885 75.5055 22.7812 75.2242 23.0312C74.943 23.2708 74.7347 23.5521 74.5992 23.875C74.4742 24.1979 74.4117 24.5521 74.4117 24.9375C74.4117 25.3229 74.5003 25.6719 74.6774 25.9844C74.8545 26.2865 75.1097 26.526 75.443 26.7031C75.7763 26.8698 76.167 26.9531 76.6149 26.9531C77.292 26.9531 77.8805 26.8177 78.3805 26.5469C78.8805 26.276 79.2659 25.9427 79.5367 25.5469C79.818 25.151 79.9638 24.776 79.9742 24.4219L81.1617 26.3281C80.9951 26.7552 80.7659 27.1979 80.4742 27.6562C80.193 28.1146 79.8336 28.5469 79.3961 28.9531C78.9586 29.349 78.4326 29.6771 77.818 29.9375C77.2034 30.1875 76.4742 30.3125 75.6305 30.3125C74.5576 30.3125 73.5836 30.099 72.7086 29.6719C71.844 29.2344 71.1565 28.6354 70.6461 27.875C70.1461 27.1042 69.8961 26.2292 69.8961 25.25C69.8961 24.3646 70.0628 23.5781 70.3961 22.8906C70.7295 22.2031 71.219 21.625 71.8649 21.1562C72.5211 20.6771 73.3388 20.3177 74.318 20.0781C75.2972 19.8281 76.4326 19.7031 77.7242 19.7031H80.3336ZM92.1461 16.7031V30H87.6461V13.0938H91.8649L92.1461 16.7031ZM91.4899 20.9531H90.2711C90.2711 19.7031 90.4326 18.5781 90.7555 17.5781C91.0784 16.5677 91.5315 15.7083 92.1149 15C92.6982 14.2812 93.3909 13.7344 94.193 13.3594C95.0055 12.974 95.9117 12.7812 96.9117 12.7812C97.7034 12.7812 98.4274 12.8958 99.0836 13.125C99.7399 13.3542 100.302 13.7188 100.771 14.2188C101.25 14.7188 101.615 15.3802 101.865 16.2031C102.125 17.026 102.255 18.0312 102.255 19.2188V30H97.7242V19.2031C97.7242 18.4531 97.6201 17.8698 97.4117 17.4531C97.2034 17.0365 96.8961 16.7448 96.4899 16.5781C96.094 16.401 95.6045 16.3125 95.0211 16.3125C94.417 16.3125 93.8909 16.4323 93.443 16.6719C93.0055 16.9115 92.6409 17.2448 92.3492 17.6719C92.068 18.0885 91.8545 18.5781 91.7086 19.1406C91.5628 19.7031 91.4899 20.3073 91.4899 20.9531ZM116.38 13.0938H120.459V29.4375C120.459 30.9792 120.115 32.2865 119.427 33.3594C118.75 34.4427 117.802 35.2604 116.584 35.8125C115.365 36.375 113.948 36.6562 112.334 36.6562C111.625 36.6562 110.875 36.5625 110.084 36.375C109.302 36.1875 108.552 35.8958 107.834 35.5C107.125 35.1042 106.532 34.6042 106.052 34L108.037 31.3438C108.558 31.9479 109.162 32.4167 109.849 32.75C110.537 33.0938 111.297 33.2656 112.13 33.2656C112.943 33.2656 113.63 33.1146 114.193 32.8125C114.755 32.5208 115.188 32.0885 115.49 31.5156C115.792 30.9531 115.943 30.2708 115.943 29.4688V17L116.38 13.0938ZM105.005 21.75V21.4219C105.005 20.1302 105.162 18.9583 105.474 17.9062C105.797 16.8438 106.25 15.9323 106.834 15.1719C107.427 14.4115 108.146 13.8229 108.99 13.4062C109.834 12.9896 110.787 12.7812 111.849 12.7812C112.974 12.7812 113.917 12.9896 114.677 13.4062C115.438 13.8229 116.063 14.4167 116.552 15.1875C117.042 15.9479 117.422 16.849 117.693 17.8906C117.974 18.9219 118.193 20.0521 118.349 21.2812V22C118.193 23.1771 117.959 24.2708 117.646 25.2812C117.334 26.2917 116.922 27.1771 116.412 27.9375C115.901 28.6875 115.266 29.2708 114.505 29.6875C113.755 30.1042 112.86 30.3125 111.818 30.3125C110.776 30.3125 109.834 30.099 108.99 29.6719C108.157 29.2448 107.443 28.6458 106.849 27.875C106.255 27.1042 105.797 26.1979 105.474 25.1562C105.162 24.1146 105.005 22.9792 105.005 21.75ZM109.505 21.4219V21.75C109.505 22.4479 109.573 23.099 109.709 23.7031C109.844 24.3073 110.052 24.8438 110.334 25.3125C110.625 25.7708 110.985 26.1302 111.412 26.3906C111.849 26.6406 112.365 26.7656 112.959 26.7656C113.782 26.7656 114.453 26.5938 114.974 26.25C115.495 25.8958 115.886 25.4115 116.146 24.7969C116.407 24.1823 116.558 23.474 116.599 22.6719V20.625C116.578 19.9688 116.49 19.3802 116.334 18.8594C116.177 18.3281 115.959 17.875 115.677 17.5C115.396 17.125 115.032 16.8333 114.584 16.625C114.136 16.4167 113.604 16.3125 112.99 16.3125C112.396 16.3125 111.88 16.4479 111.443 16.7188C111.016 16.9792 110.657 17.3385 110.365 17.7969C110.084 18.2552 109.87 18.7969 109.724 19.4219C109.578 20.0365 109.505 20.7031 109.505 21.4219ZM133.084 26.1875V18.6562C133.084 18.1146 132.995 17.651 132.818 17.2656C132.641 16.8698 132.365 16.5625 131.99 16.3438C131.625 16.125 131.151 16.0156 130.568 16.0156C130.068 16.0156 129.636 16.1042 129.271 16.2812C128.907 16.4479 128.625 16.6927 128.427 17.0156C128.229 17.3281 128.13 17.6979 128.13 18.125H123.63C123.63 17.4062 123.797 16.724 124.13 16.0781C124.464 15.4323 124.948 14.8646 125.584 14.375C126.219 13.875 126.974 13.4844 127.849 13.2031C128.735 12.9219 129.724 12.7812 130.818 12.7812C132.13 12.7812 133.297 13 134.318 13.4375C135.339 13.875 136.141 14.5312 136.724 15.4062C137.318 16.2812 137.615 17.375 137.615 18.6875V25.9219C137.615 26.849 137.672 27.6094 137.787 28.2031C137.901 28.7865 138.068 29.2969 138.287 29.7344V30H133.74C133.521 29.5417 133.354 28.9688 133.24 28.2812C133.136 27.5833 133.084 26.8854 133.084 26.1875ZM133.677 19.7031L133.709 22.25H131.193C130.599 22.25 130.084 22.3177 129.646 22.4531C129.209 22.5885 128.849 22.7812 128.568 23.0312C128.287 23.2708 128.078 23.5521 127.943 23.875C127.818 24.1979 127.755 24.5521 127.755 24.9375C127.755 25.3229 127.844 25.6719 128.021 25.9844C128.198 26.2865 128.453 26.526 128.787 26.7031C129.12 26.8698 129.511 26.9531 129.959 26.9531C130.636 26.9531 131.224 26.8177 131.724 26.5469C132.224 26.276 132.61 25.9427 132.88 25.5469C133.162 25.151 133.308 24.776 133.318 24.4219L134.505 26.3281C134.339 26.7552 134.11 27.1979 133.818 27.6562C133.537 28.1146 133.177 28.5469 132.74 28.9531C132.302 29.349 131.776 29.6771 131.162 29.9375C130.547 30.1875 129.818 30.3125 128.974 30.3125C127.901 30.3125 126.927 30.099 126.052 29.6719C125.188 29.2344 124.5 28.6354 123.99 27.875C123.49 27.1042 123.24 26.2292 123.24 25.25C123.24 24.3646 123.407 23.5781 123.74 22.8906C124.073 22.2031 124.563 21.625 125.209 21.1562C125.865 20.6771 126.683 20.3177 127.662 20.0781C128.641 19.8281 129.776 19.7031 131.068 19.7031H133.677ZM151.068 26.3125V6H155.599V30H151.521L151.068 26.3125ZM140.38 21.75V21.4219C140.38 20.1302 140.526 18.9583 140.818 17.9062C141.11 16.8438 141.537 15.9323 142.099 15.1719C142.662 14.4115 143.354 13.8229 144.177 13.4062C145 12.9896 145.938 12.7812 146.99 12.7812C147.979 12.7812 148.844 12.9896 149.584 13.4062C150.334 13.8229 150.969 14.4167 151.49 15.1875C152.021 15.9479 152.448 16.849 152.771 17.8906C153.094 18.9219 153.328 20.0521 153.474 21.2812V22C153.328 23.1771 153.094 24.2708 152.771 25.2812C152.448 26.2917 152.021 27.1771 151.49 27.9375C150.969 28.6875 150.334 29.2708 149.584 29.6875C148.834 30.1042 147.959 30.3125 146.959 30.3125C145.907 30.3125 144.969 30.099 144.146 29.6719C143.334 29.2448 142.646 28.6458 142.084 27.875C141.532 27.1042 141.11 26.1979 140.818 25.1562C140.526 24.1146 140.38 22.9792 140.38 21.75ZM144.88 21.4219V21.75C144.88 22.4479 144.933 23.099 145.037 23.7031C145.151 24.3073 145.334 24.8438 145.584 25.3125C145.844 25.7708 146.177 26.1302 146.584 26.3906C147 26.6406 147.505 26.7656 148.099 26.7656C148.87 26.7656 149.505 26.5938 150.005 26.25C150.505 25.8958 150.886 25.4115 151.146 24.7969C151.417 24.1823 151.573 23.474 151.615 22.6719V20.625C151.584 19.9688 151.49 19.3802 151.334 18.8594C151.188 18.3281 150.969 17.875 150.677 17.5C150.396 17.125 150.042 16.8333 149.615 16.625C149.198 16.4167 148.703 16.3125 148.13 16.3125C147.547 16.3125 147.047 16.4479 146.63 16.7188C146.214 16.9792 145.875 17.3385 145.615 17.7969C145.365 18.2552 145.177 18.7969 145.052 19.4219C144.938 20.0365 144.88 20.7031 144.88 21.4219ZM168.24 26.1875V18.6562C168.24 18.1146 168.151 17.651 167.974 17.2656C167.797 16.8698 167.521 16.5625 167.146 16.3438C166.782 16.125 166.308 16.0156 165.724 16.0156C165.224 16.0156 164.792 16.1042 164.427 16.2812C164.063 16.4479 163.782 16.6927 163.584 17.0156C163.386 17.3281 163.287 17.6979 163.287 18.125H158.787C158.787 17.4062 158.953 16.724 159.287 16.0781C159.62 15.4323 160.104 14.8646 160.74 14.375C161.375 13.875 162.13 13.4844 163.005 13.2031C163.891 12.9219 164.88 12.7812 165.974 12.7812C167.287 12.7812 168.453 13 169.474 13.4375C170.495 13.875 171.297 14.5312 171.88 15.4062C172.474 16.2812 172.771 17.375 172.771 18.6875V25.9219C172.771 26.849 172.828 27.6094 172.943 28.2031C173.058 28.7865 173.224 29.2969 173.443 29.7344V30H168.896C168.677 29.5417 168.511 28.9688 168.396 28.2812C168.292 27.5833 168.24 26.8854 168.24 26.1875ZM168.834 19.7031L168.865 22.25H166.349C165.755 22.25 165.24 22.3177 164.802 22.4531C164.365 22.5885 164.005 22.7812 163.724 23.0312C163.443 23.2708 163.235 23.5521 163.099 23.875C162.974 24.1979 162.912 24.5521 162.912 24.9375C162.912 25.3229 163 25.6719 163.177 25.9844C163.354 26.2865 163.61 26.526 163.943 26.7031C164.276 26.8698 164.667 26.9531 165.115 26.9531C165.792 26.9531 166.38 26.8177 166.88 26.5469C167.38 26.276 167.766 25.9427 168.037 25.5469C168.318 25.151 168.464 24.776 168.474 24.4219L169.662 26.3281C169.495 26.7552 169.266 27.1979 168.974 27.6562C168.693 28.1146 168.334 28.5469 167.896 28.9531C167.459 29.349 166.933 29.6771 166.318 29.9375C165.703 30.1875 164.974 30.3125 164.13 30.3125C163.058 30.3125 162.084 30.099 161.209 29.6719C160.344 29.2344 159.657 28.6354 159.146 27.875C158.646 27.1042 158.396 26.2292 158.396 25.25C158.396 24.3646 158.563 23.5781 158.896 22.8906C159.229 22.2031 159.719 21.625 160.365 21.1562C161.021 20.6771 161.839 20.3177 162.818 20.0781C163.797 19.8281 164.933 19.7031 166.224 19.7031H168.834ZM169.24 6.07812L171.834 6.25C171.834 7.01042 171.683 7.70312 171.38 8.32812C171.078 8.94271 170.662 9.4375 170.13 9.8125C169.599 10.1771 168.99 10.3594 168.302 10.3594C167.802 10.3594 167.37 10.2917 167.005 10.1562C166.651 10.0208 166.323 9.86458 166.021 9.6875C165.719 9.5 165.407 9.33854 165.084 9.20312C164.771 9.06771 164.412 9 164.005 9C163.641 9 163.328 9.13021 163.068 9.39062C162.818 9.65104 162.693 10.026 162.693 10.5156L160.084 10.375C160.084 9.625 160.235 8.9375 160.537 8.3125C160.839 7.6875 161.255 7.1875 161.787 6.8125C162.318 6.42708 162.922 6.23438 163.599 6.23438C164.026 6.23438 164.417 6.30729 164.771 6.45312C165.125 6.58854 165.464 6.74479 165.787 6.92188C166.12 7.09896 166.459 7.25521 166.802 7.39062C167.146 7.52604 167.511 7.59375 167.896 7.59375C168.261 7.59375 168.573 7.46354 168.834 7.20312C169.104 6.93229 169.24 6.55729 169.24 6.07812ZM175.521 21.7188V21.3906C175.521 20.151 175.698 19.0104 176.052 17.9688C176.407 16.9167 176.922 16.0052 177.599 15.2344C178.276 14.4635 179.11 13.8646 180.099 13.4375C181.089 13 182.224 12.7812 183.505 12.7812C184.787 12.7812 185.927 13 186.927 13.4375C187.927 13.8646 188.766 14.4635 189.443 15.2344C190.13 16.0052 190.651 16.9167 191.005 17.9688C191.36 19.0104 191.537 20.151 191.537 21.3906V21.7188C191.537 22.9479 191.36 24.0885 191.005 25.1406C190.651 26.1823 190.13 27.0938 189.443 27.875C188.766 28.6458 187.933 29.2448 186.943 29.6719C185.953 30.099 184.818 30.3125 183.537 30.3125C182.255 30.3125 181.115 30.099 180.115 29.6719C179.125 29.2448 178.287 28.6458 177.599 27.875C176.922 27.0938 176.407 26.1823 176.052 25.1406C175.698 24.0885 175.521 22.9479 175.521 21.7188ZM180.021 21.3906V21.7188C180.021 22.4271 180.084 23.0885 180.209 23.7031C180.334 24.3177 180.532 24.8594 180.802 25.3281C181.084 25.7865 181.448 26.1458 181.896 26.4062C182.344 26.6667 182.891 26.7969 183.537 26.7969C184.162 26.7969 184.698 26.6667 185.146 26.4062C185.594 26.1458 185.953 25.7865 186.224 25.3281C186.495 24.8594 186.693 24.3177 186.818 23.7031C186.953 23.0885 187.021 22.4271 187.021 21.7188V21.3906C187.021 20.7031 186.953 20.0573 186.818 19.4531C186.693 18.8385 186.49 18.2969 186.209 17.8281C185.938 17.349 185.578 16.974 185.13 16.7031C184.683 16.4323 184.141 16.2969 183.505 16.2969C182.87 16.2969 182.328 16.4323 181.88 16.7031C181.443 16.974 181.084 17.349 180.802 17.8281C180.532 18.2969 180.334 18.8385 180.209 19.4531C180.084 20.0573 180.021 20.7031 180.021 21.3906Z" fill="#F2FEDC"/>
</svg>
